<?xml version="1.0" standalone="no"?>
<!DOCTYPE svg PUBLIC "-//W3C//DTD SVG 20010904//EN"
 "http://www.w3.org/TR/2001/REC-SVG-20010904/DTD/svg10.dtd">
<svg version="1.0" xmlns="http://www.w3.org/2000/svg"
 width="676.000000pt" height="676.000000pt" viewBox="0 0 676.000000 676.000000"
 preserveAspectRatio="xMidYMid meet">
<metadata>
Created by potrace 1.11, written by Peter Selinger 2001-2013
</metadata>
<g transform="translate(0.000000,676.000000) scale(0.100000,-0.100000)"
fill="#000000" stroke="none">
<path d="M1135 4669 c-317 -40 -629 -209 -830 -450 -151 -180 -251 -393 -290
-616 -20 -114 -19 -335 0 -449 111 -633 686 -1098 1325 -1071 263 11 467 79
690 228 284 190 487 510 545 858 25 148 17 378 -19 516 -88 345 -282 612 -581
800 -153 96 -340 161 -530 184 -129 16 -145 15 -145 -8 0 -29 138 -752 145
-759 7 -8 68 53 325 326 118 126 216 228 217 227 2 -1 -62 -163 -142 -360 -80
-197 -143 -360 -140 -363 3 -4 173 35 377 86 204 51 372 91 374 90 1 -2 -138
-102 -309 -223 -171 -121 -311 -224 -311 -229 -1 -6 164 -66 366 -135 201 -69
365 -127 363 -129 -2 -2 -110 -19 -240 -37 -130 -18 -239 -36 -242 -39 -4 -3
-18 -34 -33 -69 -86 -204 -270 -373 -489 -448 -74 -26 -77 -24 -33 16 22 19
54 63 73 97 32 58 34 70 34 153 0 82 -3 97 -33 157 -60 123 -170 191 -307 191
-133 0 -241 -65 -306 -185 -32 -59 -34 -69 -34 -158 0 -85 3 -101 29 -153 16
-32 49 -76 73 -97 49 -46 47 -47 -30 -21 -141 49 -286 149 -373 259 -51 64
-108 162 -125 213 -7 19 -15 38 -19 42 -4 5 -114 24 -244 42 -131 18 -239 35
-241 37 -2 2 160 60 361 128 201 69 366 130 367 135 1 6 -139 109 -310 230
-172 120 -311 221 -309 222 2 2 167 -37 366 -87 200 -50 369 -89 376 -86 9 4
-25 99 -122 338 -75 183 -140 344 -145 358 -13 33 28 -8 301 -299 179 -191
240 -249 240 -228 0 1 32 169 70 372 38 204 70 378 70 388 0 19 -34 21 -155 6z"/>
<path d="M3412 4320 c-18 -11 -41 -34 -52 -52 -19 -32 -20 -52 -20 -888 0
-813 1 -857 19 -890 10 -19 33 -45 52 -58 l34 -23 465 3 c515 4 515 4 655 74
218 107 333 331 296 574 -24 154 -119 288 -252 354 -66 33 -67 34 -42 47 48
26 131 126 153 186 94 252 -8 517 -242 628 -127 61 -165 65 -623 65 -392 0
-411 -1 -443 -20z m843 -285 c113 -30 177 -109 178 -219 1 -109 -50 -183 -154
-223 -37 -14 -90 -17 -331 -21 l-288 -4 0 241 0 241 268 0 c209 0 281 -3 327
-15z m129 -784 c129 -64 191 -200 152 -332 -32 -111 -110 -181 -230 -206 -41
-8 -156 -13 -353 -13 l-293 0 0 290 0 291 338 -3 c334 -3 337 -3 386 -27z"/>
<path d="M5202 4324 c-18 -9 -43 -31 -55 -48 l-22 -31 -3 -858 c-3 -951 -6
-902 62 -950 31 -22 34 -22 401 -22 369 1 370 1 470 28 274 73 480 237 596
472 190 388 114 890 -177 1166 -113 106 -250 181 -419 226 -98 26 -106 27
-460 30 -320 3 -364 2 -393 -13z m690 -288 c281 -51 452 -200 519 -453 27
-102 29 -296 5 -398 -42 -174 -163 -333 -308 -403 -126 -62 -198 -74 -445 -79
l-223 -5 0 676 0 676 188 0 c113 -1 217 -6 264 -14z"/>
</g>
</svg>
